<svg width="52" height="52" viewBox="0 0 52 52" fill="none" xmlns="http://www.w3.org/2000/svg">
<rect width="52" height="52" rx="26" fill="#FCEC41"/>
<path d="M5.2915 41.6479C5.92322 40.2575 6.6433 38.925 7.7808 37.8698C8.6442 37.0602 9.67907 36.4558 10.8084 36.1016C11.824 35.7806 12.7259 35.1946 13.6338 34.6431C15.9212 33.2662 18.0283 31.6099 19.9063 29.7123C19.9876 29.63 20.0414 29.4594 20.2212 29.5376C19.8302 30.147 19.4331 30.7482 19.0512 31.3606C17.4062 34.0233 16.1838 36.9249 15.4274 39.962C15.3259 40.3682 15.463 40.4271 15.8093 40.422C16.7061 40.4099 17.6029 40.4281 18.4987 40.4129C18.8623 40.4068 19.0156 40.4606 18.9171 40.8943C18.6957 41.8632 18.5617 42.8514 18.3403 43.8203C18.2549 44.1961 18.3656 44.3911 18.6653 44.5617C19.4825 45.0387 20.2274 45.63 20.8773 46.3177C21.7284 47.2095 22.5094 48.1657 23.2132 49.1777C23.8622 50.0999 24.5843 50.9744 25.0931 51.99H23.5626C22.7359 51.7635 21.8756 51.7361 21.0398 51.5655C15.5019 50.4334 10.7935 47.809 6.91447 43.6924C6.32236 43.0627 5.6876 42.4401 5.2915 41.6479Z" fill="#E8E9EA"/>
<path d="M36.3756 33.3208C37.7605 34.2896 39.2147 35.1552 40.7266 35.9106C41.3177 36.2031 41.9798 36.2905 42.5608 36.6216C44.5677 37.7814 45.8423 39.5303 46.7188 41.6246C46.2942 42.4858 45.6016 43.1419 44.9638 43.8234C41.016 48.0104 35.7951 50.7755 30.1133 51.6884C29.4531 51.7899 28.793 51.8915 28.1318 51.9931H26.9141C27.5092 51.1349 28.0942 50.2665 28.7036 49.4195C30.0757 47.5121 31.5077 45.6617 33.5877 44.4429C33.8122 44.3119 33.8071 44.1585 33.7614 43.9351C33.5522 42.9124 33.3805 41.8825 33.1602 40.8628C33.082 40.4982 33.1998 40.4099 33.5298 40.4139C34.3738 40.4231 35.2188 40.4139 36.0628 40.4139C36.8052 40.4139 36.7839 40.419 36.6031 39.6786C36.3177 38.5127 35.878 37.3975 35.5032 36.261C35.6403 35.8863 35.7784 35.5105 35.9186 35.1256C36.1217 35.2698 35.9805 35.5085 36.1674 35.6578C36.4081 34.8798 36.3431 34.0957 36.3756 33.3208Z" fill="#E8E9EA"/>
<path d="M35.5032 36.2627C35.878 37.3992 36.3157 38.5143 36.6031 39.6803C36.7839 40.4206 36.8062 40.4156 36.0628 40.4156C35.2188 40.4156 34.3738 40.4227 33.5298 40.4156C33.1998 40.4156 33.0819 40.4999 33.1602 40.8645C33.3805 41.8801 33.5522 42.914 33.7614 43.9367C33.8071 44.1612 33.8122 44.3146 33.5877 44.4445C31.5077 45.6572 30.0757 47.5097 28.7036 49.4211C28.0942 50.2702 27.5092 51.1365 26.9141 51.9947H25.0859C24.5781 50.9791 23.855 50.1046 23.206 49.1824C22.5022 48.1704 21.7212 47.2142 20.8701 46.3224C20.2202 45.6347 19.4753 45.0434 18.658 44.5664C18.3584 44.3958 18.2518 44.2008 18.333 43.825C18.5544 42.8561 18.6885 41.8679 18.9099 40.899C19.0115 40.4653 18.8551 40.4115 18.4915 40.4176C17.5957 40.4328 16.6989 40.4176 15.8021 40.4267C15.4558 40.4318 15.3166 40.3699 15.4202 39.9667C16.1766 36.9296 17.399 34.028 19.044 31.3653C19.4259 30.756 19.823 30.1466 20.214 29.5423C20.4506 29.4458 20.4973 29.1604 20.7096 29.0396C20.7045 29.155 20.6898 29.2698 20.6659 29.3828C19.7722 32.3911 20.2597 35.2735 21.449 38.0949C21.449 38.1497 21.4652 38.1903 21.5292 38.1964H21.5211C21.5202 38.2467 21.5257 38.2968 21.5373 38.3457C22.4656 40.9518 23.3956 43.5586 24.3273 46.166C24.893 47.7484 25.4597 49.3307 26.0701 51.036L30.6221 38.0857L30.9075 37.3748C31.5169 37.4428 32.1039 37.6033 32.7285 37.6592L31.9861 37.9456C32.9448 38.1893 33.8234 38.101 34.5952 37.4631C34.9923 37.129 35.2422 36.6933 35.5032 36.2627Z" fill="#F6F6F6"/>
<path d="M21.0458 28.2343C20.67 27.7021 20.2922 27.1709 19.9195 26.6377C19.3101 25.7694 18.9161 24.7873 18.4133 23.8631C18.1543 23.0506 17.8862 22.233 17.6415 21.4123C17.5684 21.1602 17.415 20.9388 17.2047 20.7816C15.986 19.7813 15.4365 18.4752 15.6356 16.902C15.724 16.2022 16.0601 15.9361 16.7579 15.9463C17.0382 15.9463 17.0575 15.8142 17.0808 15.6233C17.5125 15.864 17.8446 16.2327 18.2173 16.5373C18.974 17.1741 19.5458 17.2331 20.3765 16.7029C21.0082 16.3111 21.6949 16.016 22.4139 15.8274C23.9668 15.3998 25.5562 15.3917 27.1396 15.4628C28.7707 15.5349 30.3479 15.8579 31.7566 16.777C32.4594 17.2361 33.0414 17.1467 33.7056 16.6034C34.1118 16.2733 34.4653 15.8853 34.9193 15.6182C34.9426 15.8091 34.9619 15.9463 35.2422 15.9412C35.939 15.931 36.2304 16.2022 36.3736 16.8938C36.6408 18.1827 35.877 20.0484 34.7618 20.8091C34.5912 20.9259 34.4572 21.0335 34.4023 21.259C34.1743 22.1526 33.8824 23.0286 33.5289 23.8803C33.2079 24.5384 32.8873 25.1962 32.5671 25.8537L31.1899 27.8849C31.0781 27.971 31.0021 28.0955 30.9766 28.2343C30.549 28.6121 30.1306 29.0001 29.6918 29.3657C27.6972 31.0313 25.1469 31.3452 22.8973 29.7953C22.225 29.3302 21.642 28.7787 21.0458 28.2343Z" fill="#FECF5B"/>
<path d="M15.9696 14.5154C15.6314 10.6561 16.967 7.51778 20.0778 5.19809C25.6536 1.03911 33.933 3.99356 35.6707 10.7312C35.9755 11.9092 36.0785 13.1304 35.9754 14.3428C35.9602 14.4058 35.9439 14.4687 35.9287 14.5307C35.5377 14.3875 35.303 14.033 34.9537 13.8197C32.8757 12.5756 30.5865 12.019 28.2109 11.9124C26.1939 11.822 24.1637 11.7692 22.1477 12.084C20.6135 12.3144 19.1227 12.7746 17.7256 13.449C17.102 13.7578 16.5902 14.2189 15.9696 14.5154Z" fill="#FE7058"/>
<path d="M30.9077 37.3748C30.8123 37.6114 30.7178 37.8491 30.6223 38.0857C30.0495 38.2797 29.4787 38.4828 28.9019 38.6646C27.3863 39.135 25.7843 39.2579 24.2147 39.0242C23.2672 38.8931 22.414 38.494 21.5254 38.1903H21.5335L21.4533 38.0888C20.269 35.2684 19.7765 32.385 20.6702 29.3767C20.6941 29.2637 20.7087 29.1489 20.7139 29.0335V29.0467C20.8094 29.0294 20.8033 28.9928 20.7332 28.9451C20.7941 28.8435 20.854 28.742 20.914 28.6333C21.0958 29.4458 21.6137 30.044 22.2272 30.5579C23.516 31.6375 24.9998 32.0753 26.6817 31.9016C27.8107 31.7831 28.8811 31.3396 29.7631 30.6249C30.3725 30.1496 30.7787 29.5078 31.2348 28.9136C31.2652 28.9613 31.2957 29.0091 31.3272 29.0568C31.694 30.1259 31.8843 31.2476 31.8908 32.3779C31.9071 33.2107 31.7162 34.0192 31.6948 34.8449C31.4358 35.4705 30.409 35.6685 29.6351 35.4999C29.237 35.4136 28.848 35.2867 28.4164 35.1668C28.6094 35.8686 29.0146 36.3378 29.5447 36.7278C29.9612 37.0315 30.469 37.1321 30.9077 37.3748Z" fill="#FECF5B"/>
<path d="M15.9695 14.5153C16.59 14.2197 17.1019 13.7576 17.7285 13.453C19.1255 12.7778 20.6163 12.317 22.1506 12.0859C24.1666 11.7711 26.1968 11.8239 28.2138 11.9143C30.5884 12.0158 32.8786 12.5775 34.9566 13.8216C35.3059 14.0308 35.5406 14.3853 35.9316 14.5326C35.9783 14.7458 35.7945 14.8139 35.6797 14.9205C35.4258 15.1562 35.1262 15.34 34.919 15.6315C34.465 15.8986 34.1065 16.2865 33.7053 16.6166C33.0411 17.16 32.4592 17.2494 31.7563 16.7903C30.3477 15.8712 28.7704 15.5482 27.1393 15.4761C25.5559 15.405 23.9665 15.4131 22.4136 15.8407C21.6946 16.0293 21.0079 16.3244 20.3763 16.7162C19.5455 17.2463 18.9737 17.1874 18.217 16.5506C17.8443 16.2378 17.5122 15.8722 17.0806 15.6365C16.7596 15.2303 16.3046 14.9652 15.9451 14.5976C15.9434 14.5829 15.9446 14.5681 15.9488 14.5539C15.953 14.5398 15.96 14.5266 15.9695 14.5153Z" fill="#F0543F"/>
<path d="M30.9073 37.3749C30.4645 37.1373 29.9617 37.0367 29.5463 36.7331C29.0162 36.3431 28.6109 35.8738 28.418 35.1721C28.8516 35.2919 29.2406 35.4188 29.6367 35.5052C30.4106 35.6738 31.4374 35.4757 31.6964 34.8501C31.9462 34.7871 32.0184 34.5647 32.0966 34.3677C32.7364 32.7498 32.643 31.1451 31.9838 29.5556C31.8569 28.9351 31.5583 28.3968 31.1876 27.8931L32.5648 25.8618C34.7433 27.8849 36.1398 30.3072 36.3734 33.3226C36.3409 34.0975 36.4059 34.8816 36.1652 35.6585C35.9783 35.5092 36.1195 35.2706 35.9163 35.1263C35.7762 35.5113 35.638 35.8871 35.5009 36.2618C35.2409 36.6924 34.9931 37.1281 34.593 37.4572C33.8211 38.095 32.9426 38.1834 31.9838 37.9396L32.7263 37.6532C32.1037 37.5984 31.5126 37.4379 30.9073 37.3749Z" fill="#2F323A"/>
<path d="M31.2344 28.9089C30.7743 29.5061 30.369 30.1449 29.7627 30.6202C28.8807 31.3349 27.8103 31.7784 26.6813 31.8969C24.9994 32.0705 23.5156 31.6328 22.2268 30.5532C21.6174 30.0393 21.0954 29.4441 20.9136 28.6286L21.0456 28.2355C21.6418 28.7789 22.2247 29.3304 22.8951 29.7915C25.1447 31.3413 27.6949 31.0275 29.6896 29.3619C30.1283 28.9963 30.5468 28.6083 30.9744 28.2305C31.0607 28.457 31.148 28.6834 31.2344 28.9089Z" fill="#F8B54C"/>
<path d="M34.9192 15.6242C35.1223 15.3378 35.427 15.154 35.6799 14.9133C35.7947 14.8117 35.9785 14.7386 35.9318 14.5253C35.947 14.4633 35.9633 14.4004 35.9785 14.3374C37.1008 17.0268 36.7808 19.5831 35.2615 22.0247C34.8914 22.612 34.4477 23.1495 33.9412 23.6243C33.8244 23.736 33.7309 23.9005 33.5288 23.8812C33.8823 23.0295 34.1742 22.1535 34.4022 21.2599C34.4571 21.0344 34.5912 20.9268 34.7618 20.81C35.879 20.0493 36.6407 18.1836 36.3736 16.8947C36.2304 16.2031 35.9389 15.9319 35.2422 15.9421C34.9619 15.9522 34.9426 15.8151 34.9192 15.6242Z" fill="#2F323A"/>
<path d="M15.9452 14.5854C16.3047 14.9531 16.7577 15.2162 17.0806 15.6244C17.0573 15.8154 17.038 15.9525 16.7577 15.9474C16.0599 15.9372 15.7238 16.2033 15.6354 16.9031C15.4323 18.4763 15.9848 19.7824 17.2045 20.7828C17.4149 20.9399 17.5682 21.1613 17.6413 21.4135C17.886 22.2341 18.1542 23.0476 18.4131 23.8642C17.951 23.655 17.6667 23.2487 17.366 22.875C15.4495 20.4933 14.8686 17.8405 15.7888 14.8952C15.8323 14.7878 15.8846 14.6842 15.9452 14.5854Z" fill="#2F323A"/>
<path d="M20.7332 28.9453C20.8032 28.9951 20.8093 29.0316 20.7139 29.0469C20.7189 29.0093 20.7271 28.9748 20.7332 28.9453Z" fill="#FEFDFD"/>
<path d="M21.5249 38.1876C22.4136 38.4923 23.2667 38.8904 24.2143 39.0214C25.7838 39.2552 27.3859 39.1323 28.9014 38.6619C29.4783 38.4801 30.0491 38.277 30.6219 38.083L26.0739 51.0221C25.4645 49.3168 24.8968 47.7345 24.3311 46.1521C23.4001 43.5467 22.4701 40.94 21.5412 38.3318C21.53 38.2846 21.5245 38.2362 21.5249 38.1876Z" fill="#FE7159"/>
<path d="M21.4531 38.0859L21.5334 38.1875C21.4694 38.1875 21.4531 38.1448 21.4531 38.0859Z" fill="#FE7159"/>
<path d="M31.3271 29.0518C31.6064 29.1391 31.7009 29.4702 31.9863 29.5504C32.6454 31.1399 32.7389 32.7446 32.099 34.3625C32.0208 34.5595 31.9487 34.7819 31.6989 34.8449C31.7202 34.0232 31.9111 33.2107 31.8908 32.3779C31.8849 31.2459 31.6945 30.1225 31.3271 29.0518Z" fill="#F9F9F8"/>
</svg>
