<svg width="52" height="52" viewBox="0 0 52 52" fill="none" xmlns="http://www.w3.org/2000/svg">
<rect width="52" height="52" rx="26" fill="#FCEC41"/>
<path d="M36.4933 33.4009C37.3373 33.9087 38.0594 34.6095 38.9897 34.9812C38.9897 39.3355 38.9897 43.6892 38.9897 48.0421C38.9897 48.1914 38.9592 48.3468 39.072 48.4778C36.3166 50.1496 33.3225 51.1621 30.1537 51.6831C29.4499 51.7999 28.741 51.8863 28.0341 51.9878H23.5623C23.5197 51.8944 23.4334 51.8974 23.3501 51.8863C21.288 51.6899 19.2588 51.2351 17.3102 50.5324C15.8385 50.0013 14.3902 49.4092 13.0801 48.5317V35.0208L15.5541 33.408C15.6557 33.5999 15.61 33.8061 15.61 34.0062C15.61 36.4752 15.6212 38.9452 15.6039 41.4142C15.6039 41.8265 15.7055 41.9616 16.1381 41.9606C22.7336 41.9477 29.3294 41.9477 35.9255 41.9606C36.3623 41.9606 36.4547 41.8174 36.4516 41.4101C36.4354 38.9411 36.4425 36.4721 36.4455 34.0021C36.4476 33.8031 36.477 33.602 36.4933 33.4009Z" fill="#54BFE9"/>
<path d="M36.4933 33.4009C36.477 33.604 36.4476 33.8072 36.4476 34.0032C36.4476 36.4732 36.4374 38.9422 36.4537 41.4112C36.4537 41.8174 36.3643 41.9616 35.9276 41.9616C29.3314 41.9474 22.7356 41.9474 16.1401 41.9616C15.7095 41.9616 15.6029 41.8276 15.6059 41.4152C15.6232 38.9462 15.6151 36.4762 15.612 34.0072C15.612 33.8041 15.6557 33.601 15.5562 33.409C17.302 32.1588 18.8976 30.7339 20.422 29.2257C20.4779 29.2876 20.5398 29.3455 20.5896 29.4115C22.5782 32.0146 25.818 32.8647 28.8162 31.5657C29.9953 31.0579 30.8921 30.2088 31.666 29.2104C32.8045 30.3551 33.9654 31.4763 35.2562 32.4523C35.6686 32.7651 36.0799 33.084 36.4933 33.4009Z" fill="#2F323A"/>
<path d="M35.7174 16.5325C36.2719 16.9184 36.4781 17.4821 36.4344 18.1189C36.3481 19.3793 35.9002 20.4843 34.911 21.3252C34.7808 21.4476 34.6255 21.5401 34.4558 21.5962C34.2862 21.6523 34.1064 21.6708 33.9289 21.6502C33.6963 21.6197 33.5957 21.7213 33.5226 21.9244C33.041 23.2974 32.3904 24.605 31.5858 25.8173C31.5251 25.9369 31.479 26.0634 31.4487 26.1941C31.3193 26.2352 31.2069 26.3176 31.1288 26.4287C30.6393 27.0269 30.1487 27.6221 29.5353 28.1065C28.0718 29.2623 26.4793 29.8575 24.6075 29.2776C23.4009 28.9038 22.4168 28.1959 21.589 27.2524C21.2681 26.8888 20.9248 26.5415 20.5927 26.1911C20.2342 25.5624 19.8675 24.9398 19.5202 24.3051C19.1204 23.5633 18.7808 22.7906 18.5046 21.9945C18.4111 21.7284 18.2893 21.6096 17.9968 21.6512C17.7423 21.6757 17.4874 21.608 17.2787 21.4603C16.1483 20.7636 15.3135 18.7374 15.6405 17.4628C15.7421 17.087 15.8538 16.7011 16.3372 16.6401C16.6419 17.8416 17.0482 18.9964 17.8475 19.9775C17.6606 18.5678 17.5428 17.1632 17.493 15.7525C17.7418 15.9556 17.9947 16.1506 18.2405 16.3619C19.0063 17.0037 19.5446 17.0403 20.3926 16.4908C20.9941 16.115 21.6487 15.8318 22.3345 15.6509C23.9514 15.1929 25.6099 15.2112 27.2623 15.2843C28.8802 15.3544 30.4351 15.6905 31.8154 16.6249C32.4197 17.0311 33.0341 16.9367 33.5968 16.4919C33.9014 16.2512 34.199 16.0033 34.4997 15.7586C34.4473 17.2412 34.2946 18.7186 34.0426 20.1806C34.3033 19.8693 34.5306 19.5317 34.7211 19.1731C35.1964 18.3423 35.4117 17.4201 35.7174 16.5325Z" fill="#FEFEFD"/>
<path d="M16.0551 14.3276C15.7809 12.8275 15.9708 11.3599 16.4684 9.94314C17.9228 5.8065 21.445 3.24002 25.8244 3.07853C30.868 2.89064 35.487 6.95213 35.9634 11.9795C36.0401 12.7868 36.0278 13.6001 35.9268 14.4048C35.4563 13.946 34.919 13.5611 34.3333 13.2632C32.0623 12.1115 29.6299 11.6961 27.1102 11.6788C26.3438 11.5255 25.5547 11.5255 24.7884 11.6788C24.2166 11.6951 23.6469 11.7134 23.0751 11.7713C20.5157 12.0333 18.1046 12.6762 16.0551 14.3276Z" fill="#FE7058"/>
<path d="M16.0548 14.3275C18.1043 12.6761 20.5154 12.0332 23.0748 11.7711C23.6466 11.7132 24.2164 11.695 24.7881 11.6787H27.1099C29.6296 11.696 32.062 12.1114 34.333 13.2631C34.9187 13.561 35.456 13.9459 35.9265 14.4046L35.8412 14.6189C35.365 14.9602 34.9173 15.3396 34.5026 15.7534C34.1979 15.9982 33.9034 16.246 33.5997 16.4867C33.0371 16.9315 32.4226 17.028 31.8183 16.6197C30.4381 15.6884 28.8831 15.3492 27.2653 15.2791C25.6128 15.206 23.9543 15.1877 22.3374 15.6457C21.6517 15.8266 20.997 16.1098 20.3956 16.4857C19.5475 17.0351 19.0092 16.9986 18.2435 16.3567C17.9977 16.1536 17.7448 15.9504 17.496 15.7473C17.0819 15.3339 16.6349 14.9548 16.1594 14.6139C16.1015 14.5306 16.0213 14.4493 16.0548 14.3275Z" fill="#F0543F"/>
<path d="M13.0813 48.5365C11.1719 47.5138 9.49711 46.1853 7.94523 44.6923C6.96034 43.7639 6.06814 42.7417 5.28125 41.6404C5.93227 40.2185 6.67672 38.8627 7.85078 37.7962C8.70898 37.0173 9.65656 36.3876 10.8093 36.1164C11.2582 36.0148 11.6279 35.7234 12.0382 35.5273C12.3876 35.3618 12.7339 35.1891 13.0813 35.0195C13.0819 39.5255 13.0819 44.0312 13.0813 48.5365Z" fill="#2F323A"/>
<path d="M46.7393 41.6406C45.5205 43.3539 44.0407 44.8164 42.4249 46.1489C41.3713 47.0117 40.2505 47.7891 39.0733 48.4737C38.9596 48.3447 38.99 48.1873 38.99 48.038C38.99 43.685 38.99 39.3314 38.99 34.9771C40.0595 35.5549 41.1828 36.013 42.2898 36.5117C44.2388 37.3902 45.4738 39.0223 46.4 40.9032C46.5158 41.15 46.6265 41.3988 46.7393 41.6406Z" fill="#2F323A"/>
<path d="M31.6631 29.2096C30.8892 30.2079 29.9924 31.0539 28.8133 31.5648C25.8182 32.8607 22.5783 32.0137 20.5867 29.4107C20.5369 29.3446 20.475 29.2868 20.4191 29.2248C20.4191 28.6875 20.3856 28.1503 20.5105 27.6201C20.7492 27.809 20.993 27.9898 21.2215 28.1858C23.8733 30.4324 26.8226 30.8874 29.8279 28.91C30.421 28.5189 30.8801 27.9593 31.5209 27.6404C31.571 28.1638 31.6184 28.6869 31.6631 29.2096Z" fill="#FCFDFD"/>
<path d="M31.527 27.6402C30.8861 27.9591 30.4271 28.5187 29.8339 28.9097C26.8287 30.8872 23.8793 30.4332 21.2275 28.1856C20.996 27.9896 20.7522 27.8088 20.5166 27.6199C20.5237 27.1426 20.4699 26.6622 20.5918 26.1909C20.9249 26.5444 21.2682 26.8887 21.5891 27.2522C22.4168 28.1958 23.401 28.9037 24.6075 29.2774C26.4793 29.8573 28.0718 29.2622 29.5354 28.1064C30.1447 27.6219 30.6393 27.0268 31.1289 26.4286C31.207 26.3175 31.3193 26.2351 31.4488 26.194C31.4725 26.674 31.4986 27.1561 31.527 27.6402Z" fill="#E5E9ED"/>
<path d="M34.5029 15.7536C34.9177 15.3398 35.3653 14.9604 35.8415 14.6191C35.9075 15.2641 35.7166 15.8917 35.7176 16.5326C35.4129 17.4202 35.1966 18.3424 34.7243 19.1681C34.5339 19.5267 34.3065 19.8644 34.0459 20.1756C34.2978 18.7136 34.4505 17.2362 34.5029 15.7536Z" fill="#2F323A"/>
<path d="M16.1597 14.6191C16.6352 14.9601 17.0822 15.3391 17.4962 15.7526C17.548 17.1633 17.6638 18.5679 17.8507 19.9776C17.0484 18.9965 16.6431 17.8448 16.3405 16.6402C16.2348 15.9709 16.113 15.3027 16.1597 14.6191Z" fill="#2F323A"/>
<path d="M27.1103 11.6795H24.7886C25.5549 11.5261 26.344 11.5261 27.1103 11.6795Z" fill="#E4785C"/>
</svg>
