<svg width="52" height="52" viewBox="0 0 52 52" fill="none" xmlns="http://www.w3.org/2000/svg">
<rect width="52" height="52" rx="26" fill="#FCEC41"/>
<path d="M34.2367 31.1797L36.3594 32.3984C36.1491 34.1494 36.2101 35.9074 36.2954 37.6594C36.4477 40.8149 36.8702 43.9441 37.2958 47.0712C37.3922 47.7821 37.4278 48.5093 37.6939 49.1898C37.6596 49.2263 37.621 49.2587 37.5791 49.2862C35.2183 50.461 32.6939 51.2732 30.0909 51.6953C29.4054 51.808 28.7026 51.7969 28.0302 51.9939H23.8672C23.8133 51.9624 23.7656 51.9045 23.7057 51.9015C22.3925 51.8416 21.1087 51.5866 19.8372 51.2759C17.942 50.8117 16.1017 50.1891 14.3843 49.2446C14.6179 47.5536 14.8697 45.8656 15.082 44.1726C15.5705 40.2624 15.9961 36.3462 15.6467 32.3913C16.3312 31.9323 17.1356 31.6804 17.7958 31.1807C17.8304 31.2552 17.856 31.3337 17.8719 31.4143C18.1441 35.1924 18.4224 38.9705 18.6672 42.7507C18.6976 43.2179 18.8337 43.3367 19.2847 43.3347C22.7033 43.3174 26.1208 43.3255 29.5425 43.3255C30.6424 43.3255 31.7423 43.3154 32.8422 43.3306C33.1825 43.3357 33.3287 43.2423 33.3237 42.8787C33.3186 42.4724 33.3805 42.0662 33.409 41.6599C33.6243 38.5724 33.8284 35.4849 34.064 32.3984C34.0915 31.9922 34.0041 31.5595 34.2367 31.1797Z" fill="#FD7058"/>
<path d="M34.237 31.1796C34.0044 31.5605 34.0917 31.9921 34.0612 32.3984C33.8256 35.4849 33.6215 38.5724 33.4062 41.6599C33.3777 42.0661 33.3158 42.4724 33.3209 42.8786C33.3259 43.2422 33.1797 43.3356 32.8395 43.3306C31.7395 43.3153 30.6396 43.3255 29.5397 43.3255C26.1221 43.3255 22.7045 43.3174 19.2819 43.3346C18.8309 43.3346 18.6948 43.2178 18.6644 42.7506C18.4196 38.9705 18.1413 35.1924 17.8691 31.4142C17.8532 31.3336 17.8276 31.2552 17.793 31.1806C18.4572 30.6728 19.157 30.2128 19.7369 29.5973C20.2095 29.1217 20.5885 28.5615 20.8541 27.9459C20.9089 28.1744 20.9617 28.4039 21.0206 28.6314C21.4563 30.3235 22.1053 31.9058 23.517 33.0342C24.748 34.0173 26.0947 34.4113 27.5948 33.6131C28.4322 33.1676 29.1451 32.52 29.6687 31.7291C30.4466 30.5763 30.8285 29.2743 31.1434 27.9438C31.8157 29.3657 33.008 30.292 34.237 31.1796Z" fill="#2F323A"/>
<path d="M34.7455 17.0623C35.563 17.0978 36.1602 17.6716 36.148 18.4059C36.1359 19.1402 35.5214 19.6998 34.7089 19.7161C34.4743 19.7161 34.2366 19.6927 34.0132 19.7943L32.8148 19.8024C32.6746 19.7181 32.5182 19.7466 32.3679 19.7466C28.1226 19.7466 23.8773 19.7466 19.6319 19.7466C19.4816 19.7466 19.3273 19.7181 19.1851 19.8024L17.9937 19.7902C17.7723 19.6694 17.5316 19.7232 17.2991 19.7171C16.5424 19.6998 15.9727 19.2438 15.864 18.5593C15.7624 17.9205 16.2276 17.2857 16.9517 17.0663C17.0462 17.0379 17.1355 16.9912 17.2269 16.9536C18.8804 16.9536 20.5338 16.9536 22.1873 16.9709C22.5529 16.9709 22.6331 16.8784 22.5702 16.4986C22.1984 14.2642 21.8846 12.0126 21.5007 9.77617C21.3585 8.95453 21.3626 8.09938 21.0234 7.31328C21.1391 7.15078 21.1127 6.95984 21.131 6.77602C21.2092 5.97367 21.8633 5.30031 22.6697 5.29219C24.9041 5.26849 27.1357 5.26849 29.3647 5.29219C30.164 5.2993 30.813 5.98586 30.8709 6.80039C30.882 6.96797 30.8709 7.13758 30.8759 7.3082C30.8312 7.65859 30.7967 8.01 30.7419 8.35836C30.3092 11.1137 29.8837 13.8712 29.4216 16.6225C29.3505 17.046 29.5119 17.0714 29.8278 17.0704C31.4721 17.0623 33.1093 17.0623 34.7455 17.0623Z" fill="#FE7058"/>
<path d="M19.1852 19.8046C19.3253 19.7203 19.4817 19.7488 19.6321 19.7488C23.8774 19.7488 28.1227 19.7488 32.368 19.7488C32.5183 19.7488 32.6727 19.7203 32.8149 19.8046C32.9342 20.9196 32.8306 22.0471 32.5102 23.1216C32.4878 23.1968 32.5305 23.2466 32.5975 23.2781C32.0536 24.3938 31.4372 25.4727 30.7521 26.5077C30.2342 27.0156 29.7629 27.5569 29.2125 28.0363C27.3254 29.6795 24.6746 29.6795 22.7876 28.0363C22.2422 27.5579 21.7659 27.0156 21.2479 26.5077C20.537 25.4738 19.9571 24.3678 19.3842 23.2577C19.3977 23.0913 19.3953 22.924 19.3771 22.7581C19.176 21.78 19.0633 20.7989 19.1852 19.8046Z" fill="#FEFDFC"/>
<path d="M14.3853 49.2383C11.676 47.9108 9.23226 46.0993 7.17432 43.8931C7.5308 41.9319 7.92994 39.9809 8.66322 38.1172C9.14666 36.8873 9.70221 35.696 10.5462 34.6641C10.6655 34.5006 10.8295 34.375 11.0185 34.3026C12.5967 33.7501 14.1334 33.094 15.6497 32.3901C15.994 36.3419 15.5735 40.2582 15.085 44.1714C14.8707 45.8594 14.6188 47.5473 14.3853 49.2383Z" fill="#2F323A"/>
<path d="M44.7727 43.9218C42.7325 46.0716 40.3363 47.8527 37.6898 49.1868C37.4237 48.5064 37.3851 47.7782 37.2916 47.0682C36.8661 43.9411 36.4436 40.812 36.2912 37.6564C36.2059 35.9045 36.145 34.1464 36.3552 32.3955C37.8461 33.1129 39.3772 33.7436 40.9408 34.2846C41.3328 34.4166 41.5288 34.7294 41.737 35.029C42.903 36.7048 43.5489 38.6 44.073 40.551C44.3736 41.6631 44.4944 42.8077 44.7727 43.9218Z" fill="#2F323A"/>
<path d="M34.7456 17.0627C33.1094 17.0627 31.4722 17.0627 29.836 17.0688C29.5151 17.0688 29.3536 17.0445 29.4298 16.6209C29.8888 13.8696 30.3144 11.1122 30.7501 8.3568C30.8049 8.00844 30.8395 7.65703 30.8842 7.30664C32.9977 8.60664 34.2713 10.4977 34.838 12.8926C35.1599 14.2941 35.0482 15.6784 34.7456 17.0627Z" fill="#F0543F"/>
<path d="M21.0233 7.3125C21.3625 8.09859 21.3584 8.95375 21.5006 9.77539C21.8845 12.0098 22.1984 14.2594 22.5701 16.4978C22.633 16.8777 22.5528 16.9741 22.1872 16.9701C20.5337 16.9548 18.8803 16.9569 17.2269 16.9528C16.7771 15.1507 16.9012 13.2531 17.5818 11.5249C18.2623 9.79667 19.4655 8.32403 21.0233 7.3125Z" fill="#F0543F"/>
<path d="M31.1482 27.9409C30.8333 29.2713 30.4515 30.5734 29.6735 31.7261C29.1499 32.5171 28.437 33.1647 27.5996 33.6101C26.0995 34.4084 24.7558 34.0163 23.5219 33.0312C22.1101 31.9028 21.4612 30.3205 21.0254 28.6285C20.9665 28.401 20.9137 28.1714 20.8589 27.9429C20.8711 27.6382 20.9787 27.3599 21.0762 27.0786C21.6176 27.6067 22.0919 28.1897 22.6525 28.7036C24.443 30.3672 26.9455 30.5074 28.9016 29.051C29.6654 28.4822 30.2565 27.7489 30.9176 27.0817C30.9948 27.3694 31.0717 27.6558 31.1482 27.9409Z" fill="#FDFDFC"/>
<path d="M30.9176 27.0845C30.2564 27.7518 29.6653 28.4851 28.9016 29.0538C26.9455 30.5102 24.443 30.3741 22.6524 28.7065C22.0969 28.1895 21.6175 27.6066 21.0762 27.0815C21.127 26.8895 21.1178 26.6752 21.2478 26.5117C21.7658 27.0195 22.237 27.5609 22.7875 28.0402C24.6745 29.6835 27.3253 29.6835 29.2123 28.0402C29.7628 27.5609 30.2341 27.0165 30.752 26.5117C30.881 26.6793 30.8749 26.8885 30.9176 27.0845Z" fill="#E7E9ED"/>
<path d="M32.6016 23.275C32.5346 23.2435 32.4919 23.1938 32.5143 23.1186C32.8347 22.0441 32.9383 20.9165 32.819 19.8016L34.0174 19.7935C33.8468 21.0782 33.5157 22.297 32.6016 23.275Z" fill="#2F323A"/>
<path d="M19.185 19.8047C19.0631 20.802 19.1759 21.7831 19.377 22.7601C19.3951 22.9261 19.3975 23.0934 19.3841 23.2598C18.9078 22.8739 18.6965 22.3183 18.4832 21.777C18.2324 21.1412 17.9937 20.4943 17.9927 19.7925L19.185 19.8047Z" fill="#2F323A"/>
</svg>
