<svg width="52" height="52" viewBox="0 0 52 52" fill="none" xmlns="http://www.w3.org/2000/svg">
<rect width="52" height="52" rx="26" fill="#FCEC41"/>
<path d="M36.4739 33.4141L38.9866 35.033C38.9866 39.5295 38.9903 44.025 38.9978 48.5195C36.2414 50.1688 33.2554 51.1652 30.0968 51.6902C29.4092 51.805 28.7003 51.7684 28.03 51.9949H23.7654C22.9458 51.7512 22.0866 51.7502 21.2528 51.5887C18.3552 51.024 15.615 50.048 13.0688 48.5418C13.0688 44.0385 13.0688 39.5359 13.0688 35.034L15.6079 33.4202C15.6079 36.076 15.6252 38.7309 15.6079 41.3857C15.6079 41.859 15.743 41.9677 16.199 41.9656C21.074 41.9494 25.9409 41.9555 30.8118 41.9555C32.5201 41.9555 34.2284 41.9412 35.9367 41.9666C36.3683 41.9727 36.48 41.8407 36.4617 41.4253C36.4292 40.6484 36.4496 39.8694 36.4536 39.0894C36.4584 37.1956 36.4651 35.3038 36.4739 33.4141Z" fill="#2F323A"/>
<path d="M36.4743 33.414C36.4642 35.3099 36.4547 37.203 36.4459 39.0934C36.4459 39.8714 36.4215 40.6504 36.454 41.4293C36.4723 41.8447 36.3606 41.9768 35.9289 41.9707C34.2207 41.9453 32.5124 41.9595 30.8041 41.9595C25.9291 41.9595 21.0622 41.9534 16.1913 41.9696C15.7353 41.9696 15.5961 41.863 15.6002 41.3897C15.6215 38.7349 15.6063 36.08 15.6002 33.4242C16.2339 32.9198 16.8677 32.4153 17.5014 31.9109C18.5374 31.0903 19.4484 30.1346 20.4142 29.2388C20.4924 29.3271 20.5747 29.4104 20.6468 29.5039C21.4741 30.595 22.6144 31.4081 23.9157 31.8345C25.2169 32.2609 26.6172 32.2805 27.9299 31.8906C29.4889 31.4427 30.6842 30.4992 31.6471 29.2256C32.3428 29.8827 33.0354 30.5459 33.7342 31.1949C34.5964 31.9921 35.5735 32.6554 36.4743 33.414Z" fill="#FFB603"/>
<path d="M20.5958 26.1938C20.1814 25.4605 19.7376 24.7414 19.3608 23.9899C19.0287 23.3277 18.7626 22.632 18.4853 21.9434C18.399 21.7311 18.3197 21.6032 18.0526 21.6529C17.7398 21.7118 17.4575 21.5859 17.1975 21.4102C16.1463 20.6993 15.3694 18.8 15.6172 17.56C15.7055 17.1222 15.8955 16.7668 16.3119 16.5646C16.6399 17.7834 17.0228 18.9808 17.8566 19.9761C17.6535 18.5989 17.5722 17.2228 17.488 15.8476C17.6738 15.8385 17.8587 15.8232 18.0445 15.8232C23.3481 15.8232 28.652 15.8232 33.9563 15.8232C34.1412 15.8232 34.327 15.8385 34.5119 15.8466C34.4103 17.2604 34.326 18.6761 34.0345 20.2138C34.9333 19.0418 35.3548 17.823 35.6798 16.5575C36.3908 16.9181 36.473 17.5793 36.4263 18.2496C36.3639 19.2359 35.9784 20.1743 35.3294 20.9196C34.9455 21.3665 34.5058 21.7321 33.8547 21.6407C33.6841 21.6164 33.608 21.6895 33.5572 21.8347C33.0554 23.2697 32.3728 24.6349 31.5259 25.8972C31.4845 25.9891 31.4571 26.0867 31.4447 26.1867C31.2334 26.2466 31.1166 26.4132 30.9917 26.5746C30.3823 27.3679 29.6815 28.0707 28.8264 28.6059C27.5061 29.4357 26.1035 29.7536 24.578 29.262C23.3897 28.8801 22.4219 28.1763 21.588 27.2561C21.262 26.9057 21.0162 26.467 20.5958 26.1938Z" fill="#FEFEFE"/>
<path d="M16.2651 12.0861C16.4766 10.9029 16.8888 9.76456 17.4839 8.72029C17.6413 8.45014 17.6972 8.20029 17.5306 7.9149C17.4634 7.77881 17.4064 7.63793 17.36 7.49342C17.0004 6.57935 17.1051 6.1731 17.8861 5.43678C18.4589 4.89748 18.919 4.8274 19.7325 5.25498C20.0981 5.44795 20.3551 5.41849 20.6882 5.1849C21.5565 4.56773 22.5307 4.11506 23.5624 3.84935C23.7346 3.81796 23.8952 3.74088 24.0274 3.62617C24.1596 3.51147 24.2586 3.36336 24.314 3.19732C24.7578 2.06592 25.356 1.73482 26.529 1.95724C27.1201 2.06998 27.4431 2.53107 27.6269 3.05209C27.7894 3.5142 28.0586 3.73763 28.5339 3.86459C29.5471 4.14029 30.5027 4.59537 31.3553 5.20826C31.6529 5.42154 31.8875 5.44998 32.2226 5.27834C33.2464 4.75326 34.1635 5.05896 34.6896 6.06849C34.9364 6.54279 34.8734 7.03639 34.6469 7.49037C34.3524 8.07334 34.4012 8.55271 34.7404 9.13162C35.2695 10.0355 35.5752 11.0471 35.7377 12.0912L16.2651 12.0861Z" fill="#FFB603"/>
<path d="M13.0701 48.5389C11.6259 47.7843 10.334 46.8123 9.09492 45.7612C7.74386 44.6095 6.5183 43.3182 5.43867 41.9089C5.38091 41.8259 5.32834 41.7394 5.28125 41.6499C5.93023 40.2534 6.6493 38.9077 7.80508 37.8434C8.67141 37.0481 9.6332 36.4083 10.792 36.1259C11.2592 36.0122 11.638 35.7197 12.0616 35.5166L13.063 35.0352C13.0664 39.5351 13.0687 44.0363 13.0701 48.5389Z" fill="#FFB603"/>
<path d="M34.5118 15.8436C34.3269 15.8355 34.1411 15.8202 33.9562 15.8202C28.652 15.8202 23.348 15.8202 18.0444 15.8202C17.8586 15.8202 17.6737 15.8355 17.4879 15.8446C17.0716 15.7964 16.6513 15.7944 16.2346 15.8385C15.8283 15.742 15.4048 15.677 15.1072 15.3307C14.9467 15.1518 14.8341 14.935 14.78 14.7007C14.726 14.4665 14.7322 14.2223 14.7982 13.9911C14.8641 13.7599 14.9876 13.5492 15.1571 13.3787C15.3266 13.2082 15.5366 13.0834 15.7674 13.0161C15.8964 12.9765 16.0254 12.9399 16.1544 12.9023H35.8514C36.1967 13.0273 36.5735 13.077 36.8497 13.3594C37.0272 13.5364 37.1546 13.7572 37.2192 13.9994C37.2838 14.2416 37.2832 14.4965 37.2175 14.7384C37.1519 14.9803 37.0234 15.2005 36.8452 15.3768C36.667 15.553 36.4454 15.679 36.2028 15.742C36.0565 15.7827 35.9072 15.8111 35.76 15.8436C35.3452 15.7969 34.9265 15.7969 34.5118 15.8436Z" fill="#FECF5C"/>
<path d="M46.7309 41.6467C46.0849 42.643 45.2724 43.5012 44.4417 44.337C42.8293 45.974 40.998 47.3798 38.9999 48.5143C38.9959 44.0192 38.9922 39.5237 38.9888 35.0278C40.1476 35.6067 41.3735 36.0526 42.5211 36.6376C44.6021 37.6999 45.8432 39.5423 46.7309 41.6467Z" fill="#FFB603"/>
<path d="M31.6497 29.2217C30.6869 30.4953 29.4915 31.4388 27.9325 31.8867C26.6197 32.2761 25.2194 32.2559 23.9184 31.8289C22.6173 31.402 21.4774 30.5885 20.6505 29.497C20.5784 29.4035 20.4961 29.3202 20.4179 29.2319C20.4118 28.6926 20.4088 28.1533 20.5195 27.6211C20.9775 27.9928 21.4254 28.3777 21.8957 28.7383C24.2052 30.4791 26.9626 30.6212 29.4489 29.1699C30.1974 28.7322 30.8108 28.1259 31.5167 27.6384L31.6497 29.2217Z" fill="#FEFDFD"/>
<path d="M35.8516 12.9043H16.1545C16.121 12.622 16.2246 12.3589 16.2642 12.0918H35.7368C35.8296 12.3521 35.8686 12.6285 35.8516 12.9043Z" fill="#FFB603"/>
<path d="M31.5128 27.633C30.8069 28.1205 30.1925 28.7268 29.445 29.1646C26.9587 30.6159 24.2013 30.4737 21.8918 28.7329C21.4216 28.3774 20.9777 27.9925 20.5156 27.6157C20.5014 27.1384 20.477 26.659 20.5958 26.1938C21.0163 26.4671 21.2621 26.9048 21.5881 27.2653C22.4219 28.1855 23.3898 28.8903 24.5781 29.2712C26.1016 29.7628 27.5031 29.4449 28.8265 28.6151C29.6816 28.0788 30.3794 27.376 30.9918 26.5838C31.1167 26.4224 31.2335 26.2558 31.4448 26.1959C31.4671 26.6746 31.4898 27.1536 31.5128 27.633Z" fill="#E6E8ED"/>
<path d="M34.512 15.8436C34.9268 15.7969 35.3455 15.7969 35.7602 15.8436C35.7338 16.0843 35.7064 16.324 35.68 16.5647C35.354 17.8261 34.9335 19.0449 34.0347 20.221C34.3282 18.6762 34.4145 17.2655 34.512 15.8436Z" fill="#2F323A"/>
<path d="M16.2349 15.8437C16.6516 15.7995 17.0719 15.8016 17.4881 15.8498C17.5724 17.2249 17.6537 18.6011 17.8568 19.9783C17.021 18.983 16.6381 17.7865 16.3121 16.5668C16.2867 16.324 16.2613 16.0823 16.2349 15.8437Z" fill="#2F323A"/>
</svg>
