<!-- icon666.com - MILLIONS vector ICONS FREE --><svg id="svg13299" viewBox="0 0 511.99999 511.99999" xmlns="http://www.w3.org/2000/svg" xmlns:svg="http://www.w3.org/2000/svg"><g id="layer1" transform="translate(0 -540.362)"><g id="g16461" transform="translate(-12804.789 -4070.166)"><path id="path14604-7" d="m12861.412 4926.7976v-208.5393h290.417v208.5394" fill="#f57f17" isolation="auto" mix-blend-mode="normal" solid-color="#000000" solid-opacity="1"></path><path id="rect14615-6" d="m12861.412 4868.857h266.375v57.94h-266.375z" fill="#f9a825" isolation="auto" mix-blend-mode="normal" solid-color="#000000" solid-opacity="1"></path><path id="path14532-0-9" d="m13127.787 4926.7978v-125.9358c0-11.2845 9.085-20.3691 20.369-20.3691 34.252 12.6343 68.505 25.2685 102.757 37.9028 10.587 3.9052 20.369 9.0846 20.369 20.3691v88.2684" fill="#607d8b" isolation="auto" mix-blend-mode="normal" solid-color="#000000" solid-opacity="1"></path><path id="path13527-6" d="m12861.412 4856.041v25.6328h266.375v-25.6328z" text-indent="0" text-align="start" text-decoration-line="none" text-decoration-style="solid" text-decoration-color="#000000" text-transform="none" block-progression="tb" white-space="normal" isolation="auto" mix-blend-mode="normal" solid-color="#000000" solid-opacity="1"></path><path id="path14534-5-2" d="m12906.988 4968.7978h-70.68v-42h448.962v42h-70.711" fill="#607d8b" isolation="auto" mix-blend-mode="normal" solid-color="#000000" solid-opacity="1"></path><g fill="#cfd8dc"><path id="path14542-7-2" d="m13186.077 4881.0509h83.108v-50.4236l-83.108-36.1467z" fill-rule="evenodd"></path><circle id="circle14536-3-9" cx="12948.789" cy="4972.798" r="42"></circle><circle id="circle14538-8-2" cx="13172.789" cy="4972.798" r="42"></circle></g><path id="path6742-8-6-0" d="m13148.156 4767.6758c-18.163 0-33.185 15.0221-33.185 33.1855v125.9356h25.633v-125.9356c0-3.852 2.476-6.6061 6.025-7.2715 33.283 12.2768 66.567 24.5534 99.85 36.8301 4.769 1.7595 8.591 3.7219 10.302 5.1719 1.712 1.45 1.684 1.2349 1.684 3.1738v88.2676h25.633v-88.2676c0-9.3456-4.918-17.7934-10.744-22.7304-5.827-4.9371-12.189-7.5184-18.006-9.6641-34.252-12.6343-68.504-25.2681-102.756-37.9023a12.817781 12.817781 0 0 0 -4.436-.793z" text-indent="0" text-align="start" text-decoration-line="none" text-decoration-style="solid" text-decoration-color="#000000" text-transform="none" block-progression="tb" white-space="normal" isolation="auto" mix-blend-mode="normal" solid-color="#000000" solid-opacity="1"></path><path id="path6794-5-4-3" d="m12836.309 4913.9805a12.817781 12.817781 0 0 0 -12.817 12.8164v42a12.817781 12.817781 0 0 0 12.817 12.8164h70.679v-25.6328h-57.863v-16.3672h423.328v16.3672h-57.894v25.6328h70.711a12.817781 12.817781 0 0 0 12.816-12.8164v-42a12.817781 12.817781 0 0 0 -12.816-12.8164z" text-indent="0" text-align="start" text-decoration-line="none" text-decoration-style="solid" text-decoration-color="#000000" text-transform="none" block-progression="tb" white-space="normal" isolation="auto" mix-blend-mode="normal" solid-color="#000000" solid-opacity="1"></path><path id="path6801-0-0-5" d="m12990.559 4955.9805v25.6328h140.429v-25.6328z" text-indent="0" text-align="start" text-decoration-line="none" text-decoration-style="solid" text-decoration-color="#000000" text-transform="none" block-progression="tb" white-space="normal" isolation="auto" mix-blend-mode="normal" solid-color="#000000" solid-opacity="1"></path><path id="path6759-4-4-4" d="m12948.789 4917.9805c-30.122 0-54.816 24.6939-54.816 54.8164s24.694 54.8183 54.816 54.8183c30.123 0 54.816-24.6958 54.816-54.8183s-24.693-54.8164-54.816-54.8164zm0 25.6347c16.269 0 29.184 12.9123 29.184 29.1817s-12.915 29.1836-29.184 29.1836-29.184-12.9142-29.184-29.1836 12.915-29.1817 29.184-29.1817z" text-indent="0" text-align="start" text-decoration-line="none" text-decoration-style="solid" text-decoration-color="#000000" text-transform="none" block-progression="tb" white-space="normal" isolation="auto" mix-blend-mode="normal" solid-color="#000000" solid-opacity="1"></path><path id="circle6781-6-6-8" d="m13172.789 4917.9805c-30.122 0-54.816 24.6939-54.816 54.8164s24.694 54.8183 54.816 54.8183c30.123 0 54.816-24.6958 54.816-54.8183s-24.693-54.8164-54.816-54.8164zm0 25.6347c16.269 0 29.184 12.9123 29.184 29.1817s-12.915 29.1836-29.184 29.1836-29.184-12.9142-29.184-29.1836 12.915-29.1817 29.184-29.1817z" text-indent="0" text-align="start" text-decoration-line="none" text-decoration-style="solid" text-decoration-color="#000000" text-transform="none" block-progression="tb" white-space="normal" isolation="auto" mix-blend-mode="normal" solid-color="#000000" solid-opacity="1"></path><path id="path7013-8-2-4" d="m13173.26 4794.4805v86.5703a12.817781 12.817781 0 0 0 12.816 12.8164h83.11v-25.6328h-70.293v-73.7539z" text-indent="0" text-align="start" text-decoration-line="none" text-decoration-style="solid" text-decoration-color="#000000" text-transform="none" block-progression="tb" white-space="normal" isolation="auto" mix-blend-mode="normal" solid-color="#000000" solid-opacity="1"></path><path id="path8026-6-6" d="m12861.412 4705.4414a12.817781 12.817781 0 0 0 -12.816 12.8164v208.5391h25.633v-195.7227h264.783v50.7715h25.633v-63.5879a12.817781 12.817781 0 0 0 -12.817-12.8164z" text-indent="0" text-align="start" text-decoration-line="none" text-decoration-style="solid" text-decoration-color="#000000" text-transform="none" block-progression="tb" white-space="normal" isolation="auto" mix-blend-mode="normal" solid-color="#000000" solid-opacity="1"></path></g></g></svg>