<!-- icon666.com - MILLIONS vector ICONS FREE --><svg version="1.1" id="Capa_1" xmlns="http://www.w3.org/2000/svg" xmlns:xlink="http://www.w3.org/1999/xlink" x="0px" y="0px" viewBox="0 0 465 465" style="enable-background:new 0 0 465 465;" xml:space="preserve"><g><path style="fill:#FFFFFF;" d="M408.992,365H435v-20h-35.098C404.293,350.824,407.484,357.602,408.992,365z"></path><path style="fill:#FFFFFF;" d="M119.906,345c4.387,5.824,7.578,12.602,9.086,20h182.016c1.508-7.398,4.699-14.176,9.09-20H119.906z "></path><path style="fill:#FFFFFF;" d="M20,345v20h11.008c1.508-7.398,4.699-14.176,9.086-20H20z"></path></g><path style="fill:#FFA447;" d="M140,235H40v75h100V235z M130,280H95v20H85v-20H50v-10h35v-25h10v25h35V280z"></path><polygon points="95,245 85,245 85,270 50,270 50,280 85,280 85,300 95,300 95,280 130,280 130,270 95,270 "></polygon><path style="fill:#FFA447;" d="M250,235H150v75h100V235z M240,280h-35v20h-10v-20h-35v-10h35v-25h10v25h35V280z"></path><polygon points="205,245 195,245 195,270 160,270 160,280 195,280 195,300 205,300 205,280 240,280 240,270 205,270 "></polygon><path style="fill:#FFA447;" d="M140,150H40v75h100V150z M130,195H95v20H85v-20H50v-10h35v-25h10v25h35V195z"></path><polygon points="95,160 85,160 85,185 50,185 50,195 85,195 85,215 95,215 95,195 130,195 130,185 95,185 "></polygon><path style="fill:#FFA447;" d="M250,150H150v75h100V150z M240,195h-35v20h-10v-20h-35v-10h35v-25h10v25h35V195z"></path><polygon points="205,160 195,160 195,185 160,185 160,195 195,195 195,215 205,215 205,195 240,195 240,185 205,185 "></polygon><path style="fill:#37B8D1;" d="M390,245h-5v-70.004C385,161.211,373.785,150,360,150h-80v170h-25H145H35H20v15h30.125 c8.348-6.25,18.668-10,29.875-10s21.527,3.75,29.875,10h220.25c8.352-6.25,18.668-10,29.875-10s21.523,3.75,29.875,10H435v-45 C435,265.188,414.813,245,390,245z M310,265h-20v-10h20V265z M295,235v-70h55c11.047,0,20,8.953,20,20v50H295z M375,275h-10v-20h10 V275z"></path><rect x="445" y="295" style="fill:#FFFFFF;" width="10" height="35"></rect><path d="M460,285h-15.238c-2.387-26.344-23.418-47.391-49.762-49.773v-60.23c0-19.297-15.703-34.996-35-34.996h-90v170h-10v-80v-85 c0-2.766-2.234-5-5-5H145H35c-2.762,0-5,2.234-5,5v85v80H10v30v5v25c0,2.766,2.238,5,5,5h15c0,16.363,7.938,30.875,20.125,40H20v10 h60c27.57,0,50-22.43,50-50h180c0,16.363,7.938,30.875,20.125,40H190v10h270v-10h-70.125C402.063,405.875,410,391.363,410,375h30 c2.766,0,5-2.234,5-5v-25v-5h15c2.766,0,5-2.234,5-5v-45C465,287.234,462.766,285,460,285z M150,150h100v75H150V150z M150,235h100 v75H150V235z M40,150h100v75H40V150z M40,235h100v75H40V235z M20,365v-20h20.094c-4.387,5.824-7.578,12.602-9.086,20H20z M80,415 c-22.055,0-40-17.945-40-40s17.945-40,40-40s40,17.945,40,40S102.055,415,80,415z M128.992,365c-1.508-7.398-4.699-14.176-9.086-20 h200.191c-4.391,5.824-7.582,12.602-9.09,20H128.992z M360,415c-22.055,0-40-17.945-40-40s17.945-40,40-40s40,17.945,40,40 S382.055,415,360,415z M435,365h-26.008c-1.508-7.398-4.699-14.176-9.09-20H435V365z M435,335h-45.125 c-8.352-6.25-18.668-10-29.875-10s-21.523,3.75-29.875,10h-220.25c-8.348-6.25-18.668-10-29.875-10s-21.527,3.75-29.875,10H20v-15 h15h110h110h25V150h80c13.785,0,25,11.211,25,24.996V245h5c24.813,0,45,20.188,45,45V335z M455,330h-10v-35h10V330z"></path><g><path style="fill:#FFFFFF;" d="M370,185c0-11.047-8.953-20-20-20h-55v70h75V185z"></path><path style="fill:#FFFFFF;" d="M360,335c-22.055,0-40,17.945-40,40s17.945,40,40,40s40-17.945,40-40S382.055,335,360,335z M360,400 c-13.785,0-25-11.215-25-25s11.215-25,25-25s25,11.215,25,25S373.785,400,360,400z"></path></g><path style="fill:#FF6565;" d="M360,360c-8.273,0-15,6.727-15,15s6.727,15,15,15s15-6.727,15-15S368.273,360,360,360z"></path><path d="M360,350c-13.785,0-25,11.215-25,25s11.215,25,25,25s25-11.215,25-25S373.785,350,360,350z M360,390 c-8.273,0-15-6.727-15-15s6.727-15,15-15s15,6.727,15,15S368.273,390,360,390z"></path><path style="fill:#FFFFFF;" d="M80,335c-22.055,0-40,17.945-40,40s17.945,40,40,40s40-17.945,40-40S102.055,335,80,335z M80,400 c-13.785,0-25-11.215-25-25s11.215-25,25-25s25,11.215,25,25S93.785,400,80,400z"></path><path style="fill:#FF6565;" d="M80,360c-8.273,0-15,6.727-15,15s6.727,15,15,15s15-6.727,15-15S88.273,360,80,360z"></path><path d="M80,350c-13.785,0-25,11.215-25,25s11.215,25,25,25s25-11.215,25-25S93.785,350,80,350z M80,390c-8.273,0-15-6.727-15-15 s6.727-15,15-15s15,6.727,15,15S88.273,390,80,390z"></path><rect x="170" y="415" width="10" height="10"></rect><rect x="150" y="415" width="10" height="10"></rect><rect y="415" width="10" height="10"></rect><rect x="290" y="255" style="fill:#FFFFFF;" width="20" height="10"></rect><rect x="365" y="255" width="10" height="20"></rect><rect x="285" y="100" width="125" height="10"></rect><rect x="265" y="100" width="10" height="10"></rect><rect x="85" y="40" width="185" height="10"></rect><rect x="145" y="70" width="185" height="10"></rect><rect x="65" y="40" width="10" height="10"></rect><rect x="45" y="40" width="10" height="10"></rect><rect x="125" y="70" width="10" height="10"></rect></svg>