<!-- icon666.com - MILLIONS vector ICONS FREE --><svg id="Layer_1" enable-background="new -3 5 512 512" viewBox="-3 5 512 512" xmlns="http://www.w3.org/2000/svg"><g id="_x32_8_x2C__Business_x2C__Cart_x2C__Finance_x2C__Marketing_x2C__Shopping"><path d="m479.9 356c5.5 0 10-4.5 10-10v-220c0-5.5-4.5-10-10-10-42.7 0-346.9 0-389.9 0v-80c0-5.5-4.5-10-10-10h-60c-5.5 0-10 4.5-10 10s4.5 10 10 10h50v389.9c0 5.5 4.5 10 10 10h25.4c-7.2 12.4-7.2 27.6 0 40h-85.3c-5.5 0-10 4.5-10 10s4.5 10 10 10h459.8c5.5 0 10-4.5 10-10s-4.5-10-10-10h-25.4c7.2-12.4 7.2-27.6 0-40h25.4c5.5 0 10-4.5 10-10s-4.5-10-10-10h-389.8v-70c420.6.1 295.8.1 389.8.1zm-359.9 109.9c0-11 9-20 20-20s20 9 20 20-9 20-20 20-20-8.9-20-20zm54.6-20h210.7c-7.2 12.4-7.2 27.6 0 40h-210.7c7.2-12.4 7.2-27.6 0-40zm265.3 20c0 11-9 20-20 20s-20-9-20-20 9-20 20-20c11.1 0 20 9 20 20zm30-129.9h-40v-200h40zm-60 0h-50v-200h50zm-69.9 0h-50v-200h50zm-70-200v200h-50v-200zm-70 0v200h-50v-200zm-70 0v200h-40v-200z"></path></g></svg>