<svg width="46" height="36" viewBox="0 0 46 36" fill="none" xmlns="http://www.w3.org/2000/svg">
<path d="M29.3284 25.2125H16.9731V3.01416H29.3284V25.2125Z" fill="#8B8D92"/>
<path d="M17.7723 14.1138C17.7723 9.61473 19.8734 5.59527 23.1621 3.0146C20.7641 1.11905 17.7267 0 14.438 0C6.6503 0 0.324219 6.32608 0.324219 14.1138C0.324219 21.9015 6.6503 28.2276 14.438 28.2276C17.7267 28.2276 20.7641 27.1085 23.1621 25.213C19.8734 22.6323 17.7723 18.6128 17.7723 14.1138Z" fill="#BABBBE"/>
<path d="M45.9999 14.1138C45.9999 21.9015 39.6739 28.2276 31.8862 28.2276C28.5975 28.2276 25.5601 27.1085 23.1621 25.213C26.4508 22.6323 28.5518 18.6128 28.5518 14.1138C28.5518 9.61473 26.4508 5.59527 23.1621 3.0146C25.5601 1.11905 28.5975 0 31.8862 0C39.6739 0 45.9999 6.32608 45.9999 14.1138Z" fill="#74767C"/>
<path d="M33.5074 31.9047C33.6673 31.9047 33.9185 31.9275 34.0783 31.996L33.8271 32.7725C33.6444 32.704 33.4846 32.6812 33.3247 32.6812C32.7994 32.6812 32.5254 33.0237 32.5254 33.6404V35.7414H31.7032V31.996H32.5025V32.4528C32.7309 32.1102 33.0506 31.9047 33.5074 31.9047ZM30.4928 32.7268H29.1682V34.4168C29.1682 34.7822 29.3052 35.0335 29.7163 35.0335C29.9219 35.0335 30.1959 34.9649 30.4471 34.8279L30.6755 35.5359C30.4243 35.7186 30.0132 35.8328 29.6478 35.8328C28.6886 35.8328 28.346 35.3075 28.346 34.4397V32.7268H27.5924V31.9732H28.346V30.8313H29.1682V31.9732H30.4928V32.7268ZM20.0559 33.5262C20.1473 32.9781 20.467 32.6126 21.0608 32.6126C21.586 32.6126 21.9286 32.9324 22.02 33.5262H20.0559ZM22.865 33.8687C22.865 32.704 22.1342 31.9047 21.0836 31.9047C19.9874 31.9047 19.2109 32.704 19.2109 33.8687C19.2109 35.0563 20.0102 35.8328 21.1293 35.8328C21.7002 35.8328 22.2027 35.6958 22.6594 35.3075L22.2483 34.7137C21.9286 34.9649 21.5404 35.102 21.1521 35.102C20.6269 35.102 20.1473 34.8508 20.0331 34.1885H22.8193C22.8421 34.0743 22.865 33.9829 22.865 33.8687ZM26.4505 32.9552C26.2221 32.8182 25.7654 32.6355 25.2858 32.6355C24.829 32.6355 24.5778 32.7954 24.5778 33.0694C24.5778 33.3206 24.8519 33.3891 25.2173 33.4348L25.6055 33.4805C26.4277 33.5947 26.9073 33.9372 26.9073 34.5995C26.9073 35.3075 26.2906 35.8328 25.1944 35.8328C24.5778 35.8328 24.0069 35.6729 23.5729 35.3532L23.9612 34.7137C24.2352 34.9193 24.6463 35.102 25.2173 35.102C25.7654 35.102 26.0623 34.9421 26.0623 34.6452C26.0623 34.4397 25.8567 34.3255 25.4 34.257L25.0117 34.2113C24.1667 34.0971 23.71 33.7089 23.71 33.1151C23.71 32.3614 24.3266 31.9047 25.2629 31.9047C25.8567 31.9047 26.4048 32.0417 26.7931 32.2929L26.4505 32.9552ZM36.4992 32.6583C36.3393 32.6583 36.1794 32.6812 36.0424 32.7497C35.9054 32.8182 35.7683 32.8867 35.677 33.0009C35.5856 33.1151 35.4943 33.2293 35.4258 33.3891C35.3573 33.5262 35.3344 33.7089 35.3344 33.8687C35.3344 34.0514 35.3573 34.2113 35.4258 34.3483C35.4943 34.4854 35.5628 34.6224 35.677 34.7366C35.7912 34.8508 35.9054 34.9193 36.0424 34.9878C36.1794 35.0563 36.3393 35.0791 36.4992 35.0791C36.659 35.0791 36.8189 35.0563 36.9559 34.9878C37.0929 34.9193 37.23 34.8508 37.3213 34.7366C37.4355 34.6224 37.504 34.5082 37.5725 34.3483C37.641 34.2113 37.6639 34.0286 37.6639 33.8687C37.6639 33.686 37.641 33.5262 37.5725 33.3891C37.504 33.2521 37.4355 33.1151 37.3213 33.0009C37.2071 32.8867 37.0929 32.8182 36.9559 32.7497C36.8189 32.704 36.659 32.6583 36.4992 32.6583ZM36.4992 31.9047C36.796 31.9047 37.0701 31.9504 37.2985 32.0645C37.5497 32.1559 37.7552 32.2929 37.9379 32.4756C38.1206 32.6583 38.2577 32.8639 38.3719 33.0922C38.4632 33.3435 38.5317 33.5947 38.5317 33.8687C38.5317 34.1428 38.486 34.4168 38.3719 34.6452C38.2805 34.8964 38.1206 35.102 37.9379 35.2618C37.7552 35.4445 37.5497 35.5816 37.2985 35.6729C37.0473 35.7643 36.7732 35.8328 36.4992 35.8328C36.2023 35.8328 35.9282 35.7871 35.6998 35.6729C35.4486 35.5816 35.2431 35.4445 35.0604 35.2618C34.8777 35.0791 34.7406 34.8736 34.6264 34.6452C34.5351 34.394 34.4666 34.1428 34.4666 33.8687C34.4666 33.5947 34.5123 33.3206 34.6264 33.0922C34.7178 32.841 34.8777 32.6355 35.0604 32.4756C35.2431 32.2929 35.4486 32.1559 35.6998 32.0645C35.9282 31.9504 36.2023 31.9047 36.4992 31.9047ZM15.3056 33.8687C15.3056 33.2064 15.7396 32.6583 16.4475 32.6583C17.1327 32.6583 17.5666 33.1836 17.5666 33.8687C17.5666 34.5539 17.1098 35.0563 16.4475 35.0563C15.7396 35.0563 15.3056 34.531 15.3056 33.8687ZM18.3431 33.8687V31.996H17.5209V32.4528C17.2697 32.1102 16.8815 31.9047 16.3333 31.9047C15.2828 31.9047 14.4606 32.7268 14.4606 33.8687C14.4606 35.0106 15.2828 35.8328 16.3333 35.8328C16.8586 35.8328 17.2469 35.6272 17.5209 35.2847V35.7414H18.3431V33.8687ZM13.7527 35.7414V33.3891C13.7527 32.4985 13.1817 31.9047 12.2682 31.9047C11.7886 31.9047 11.2862 32.0417 10.9436 32.567C10.6924 32.1559 10.2813 31.9047 9.71037 31.9047C9.32213 31.9047 8.91105 32.0189 8.61415 32.4528V31.996H7.79199V35.7414H8.61415V33.6632C8.61415 33.0237 8.97956 32.6583 9.52767 32.6583C10.0758 32.6583 10.3498 33.0009 10.3498 33.6404V35.7186H11.172V33.6404C11.172 33.0009 11.5602 32.6355 12.0855 32.6355C12.6336 32.6355 12.9077 32.9781 12.9077 33.6175V35.6958H13.7527V35.7414Z" fill="#A2A4A7"/>
</svg>
