<!-- icon666.com - MILLIONS vector ICONS FREE --><svg version="1.1" id="Capa_1" xmlns="http://www.w3.org/2000/svg" xmlns:xlink="http://www.w3.org/1999/xlink" x="0px" y="0px" viewBox="0 0 512 512" style="enable-background:new 0 0 512 512;" xml:space="preserve"><g><g><g><path d="M206.284,384.754c9.052,0,16.383-7.339,16.383-16.383v-32.384h89.821c9.043,0,16.383-7.331,16.383-16.383 c0-9.052-7.331-16.392-16.383-16.392h-89.821v-22.586h53.843c27.37,0,50.453-7.694,66.764-22.249 c15.202-13.561,23.571-32.171,23.571-52.396c0-38.161-31.674-78.728-90.345-78.728h-70.217c-9.052,0-16.383,7.331-16.383,16.383 v104.225h-20.554c-9.052,0-16.383,7.331-16.383,16.383c0,9.052,7.331,16.383,16.383,16.383h20.554v22.586h-20.554 c-9.052,0-16.383,7.339-16.383,16.392c0,9.052,7.331,16.383,16.383,16.383h20.554v32.384 C189.901,377.424,197.232,384.754,206.284,384.754z M222.667,160.02h53.834c37.789,0,57.57,23.119,57.57,45.962 c0,10.756-4.482,20.687-12.629,27.955c-10.206,9.114-25.746,13.924-44.942,13.924h-53.834V160.02z"></path><path d="M495.617,272.383c9.052,0,16.383-7.331,16.383-16.383C512,114.839,397.17,0,256,0S0,114.839,0,256s114.83,256,256,256 c121.095,0,226.571-85.961,250.799-204.42c1.819-8.857-3.896-17.528-12.762-19.329c-8.848-1.81-17.528,3.896-19.338,12.762 C453.578,404.288,361.6,479.235,256,479.235C132.908,479.235,32.757,379.101,32.757,256 C32.757,132.908,132.908,32.765,256,32.765S479.235,132.908,479.235,256C479.235,265.052,486.565,272.383,495.617,272.383z"></path><path d="M272.383,69.684c0-9.043-7.331-16.383-16.383-16.383c-111.768,0-202.698,90.93-202.698,202.698 c0,9.043,7.331,16.383,16.383,16.383c9.043,0,16.374-7.331,16.383-16.383c0-93.699,76.225-169.933,169.933-169.933 C265.052,86.067,272.383,78.728,272.383,69.684z"></path><path d="M256,458.707c111.759,0,202.698-90.939,202.698-202.707c0-9.043-7.331-16.383-16.383-16.383 c-9.052,0-16.383,7.331-16.383,16.383c0,93.699-76.225,169.933-169.933,169.933c-9.052,0-16.383,7.331-16.383,16.383 C239.617,451.368,246.948,458.707,256,458.707z"></path></g></g></g></svg>