<!-- icon666.com - MILLIONS vector ICONS FREE --><svg version="1.1" id="Layer_1" xmlns="http://www.w3.org/2000/svg" xmlns:xlink="http://www.w3.org/1999/xlink" x="0px" y="0px" viewBox="0 0 512 512" style="enable-background:new 0 0 512 512;" xml:space="preserve"><path style="fill:#B07E09;" d="M291.987,512h-51.164c-10.911,0-19.757-2.163-19.757-17.176V24.023 C221.067,10.756,231.822,0,245.09,0h18.4h24.229c13.267,0,24.023,10.756,24.023,24.023v470.801 C311.743,509.837,302.899,512,291.987,512z"></path><g><path style="fill:#855914;" d="M291.987,459.874h-51.164c-10.911,0-19.757-2.163-19.757-17.176v52.126 c0,15.011,8.846,17.176,19.757,17.176h51.164c10.911,0,19.757-2.163,19.757-17.176v-52.126 C311.743,457.71,302.899,459.874,291.987,459.874z"></path><path style="fill:#855914;" d="M221.067,84.781v89.985c12.887,7.093,27.687,11.135,43.436,11.135 c17.324,0,33.498-4.889,47.24-13.351V86.988c-13.741-8.46-29.918-13.343-47.24-13.343 C248.752,73.645,233.952,77.689,221.067,84.781z"></path></g><path style="fill:#58595B;" d="M395.123,59.473h-76.675c-11.444-16.458-30.482-27.241-52.048-27.241s-40.603,10.782-52.048,27.241 H182.91c-2.73,0-5.402,0.788-7.696,2.267l-71.92,46.415c-3.265,2.108-5.237,5.728-5.237,9.614v14.945 c0,3.934,3.19,7.125,7.125,7.125h115.874c11.507,11.792,27.565,19.123,45.344,19.123s33.837-7.331,45.344-19.123h83.378 c10.394,0,18.82-8.427,18.82-18.82V78.295C413.943,67.9,405.516,59.473,395.123,59.473z"></path><circle style="fill:#414042;" cx="265.369" cy="94.869" r="9.364"></circle><g><circle style="fill:#B07E09;" cx="266.4" cy="471.516" r="9.364"></circle></g><path style="fill:#414042;" d="M395.122,59.473h-19.885v80.364h19.885c10.394,0,18.821-8.427,18.821-18.82V78.295 C413.943,67.9,405.516,59.473,395.122,59.473z"></path></svg>