<!-- icon666.com - MILLIONS vector ICONS FREE --><svg id="svg6331" viewBox="0 0 32 32" xmlns="http://www.w3.org/2000/svg" xmlns:svg="http://www.w3.org/2000/svg"><g id="layer1"><path id="path1008" d="m15.999999 1.9999987c-7.7201395-.000006-14.0000095 6.279845-13.9999995 14.0000023.00001 7.72014 6.27987 14 13.9999995 14 7.72014 0 13.99999-6.27986 14-14 .00001-7.7201563-6.27985-14.0000093-14-14.0000023zm0 2c.33907-.000001.73084.171637 1.20703.695312.4762.523675.97271 1.375918 1.39453 2.472656.41222 1.071765.75478 2.375284.99805 3.8320343h-7.19922c.24327-1.4567503.58583-2.7602693.99805-3.8320343.42182-1.096738.91834-1.948981 1.39453-2.472656s.86796-.695313 1.20703-.695312zm-3.54297.53125c-.34366.570258-.65221 1.206682-.92578 1.917968-.50437 1.31138-.8977 2.853884-1.16016 4.5507843h-5.2734295c1.41176-3.0803453 4.07836-5.4598043 7.3593695-6.4687523zm7.08399 0c3.28183 1.008633 5.94931 3.387844 7.36133 6.4687523h-5.2754c-.26245-1.6968803-.65383-3.2394163-1.1582-4.5507843-.27368-.711563-.58391-1.347547-.92773-1.917968zm-15.1503895 8.4687523h5.7421795c-.0847.96719-.1328095 1.96781-.1328095 3 0 1.03149.0482 2.03319.1328095 3h-5.7421795c-.24649-.95994-.39063-1.96196-.39063-3 0-1.03838.14399-2.03979.39063-3zm7.7636695 0h7.6914c.0919.96488.1543 1.959.1543 3 0 1.04028-.0625 2.03546-.1543 3h-7.6914c-.0918-.96454-.1543-1.95972-.1543-3 0-1.041.0624-2.03512.1543-3zm9.71289 0h5.74023c.24668.96028.39258 1.96154.39258 3 0 1.03813-.14605 2.03999-.39258 3h-5.74023c.0846-.96681.13281-1.96851.13281-3 0-1.03219-.0481-2.03281-.13281-3zm-16.7695295 8h5.2734295c.26246 1.69815.6556 3.24087 1.16016 4.55273.2732.71031.58075 1.34828.92383 1.91797-3.2803595-1.00932-5.9459795-3.39068-7.3574195-6.4707zm7.3027295 0h7.19922c-.24329 1.458-.58564 2.76174-.99805 3.83398-.42182 1.09674-.91833 1.94898-1.39453 2.47266-.47619.52367-.86796.69336-1.20703.69336s-.73084-.16969-1.20703-.69336c-.47619-.52368-.97271-1.37592-1.39453-2.47266-.4124-1.07224-.75476-2.37598-.99805-3.83398zm9.22656 0h5.2754c-1.41171 3.08058-4.07819 5.4617-7.35938 6.4707.34325-.56985.65248-1.20738.92578-1.91797.50456-1.31185.89575-2.8546 1.1582-4.55273z" font-variant-ligatures="normal" font-variant-position="normal" font-variant-caps="normal" font-variant-numeric="normal" font-variant-alternates="normal" font-feature-settings="normal" text-indent="0" text-align="start" text-decoration-line="none" text-decoration-style="solid" text-decoration-color="rgb(0,0,0)" text-transform="none" text-orientation="mixed" white-space="normal" shape-padding="0" isolation="auto" mix-blend-mode="normal" solid-color="rgb(0,0,0)" solid-opacity="1" vector-effect="none" paint-order="normal"></path></g></svg>