<!-- icon666.com - MILLIONS vector ICONS FREE --><svg version="1.1" id="Layer_1" xmlns="http://www.w3.org/2000/svg" xmlns:xlink="http://www.w3.org/1999/xlink" x="0px" y="0px" viewBox="0 0 512 512" style="enable-background:new 0 0 512 512;" xml:space="preserve"><polyline style="fill:#F9B233;" points="32,176.293 32,128.292 256,40.292 480,128.292 480,176.293 "></polyline><polyline style="fill:#ED7149;" points="32,472.292 32,176.293 256,88.292 480,176.293 480,472.292 "></polyline><rect x="136.004" y="416.288" style="fill:#FFFFFF;" width="240.003" height="56"></rect><rect x="79.997" y="256.293" style="fill:#F9B233;" width="32" height="48.001"></rect><rect x="136.004" y="256.293" style="fill:#CBBBA0;" width="240.003" height="159.995"></rect><rect x="128" y="176.296" style="fill:#FFFFFF;" width="256" height="48.001"></rect><g><rect x="136.004" y="352.288" style="fill:#D5C9B3;" width="240.003" height="32"></rect><rect x="136.004" y="288.288" style="fill:#D5C9B3;" width="240.003" height="32"></rect></g><g><rect x="183.996" y="408.451" style="fill:#1D1D1B;" width="16.001" height="15.673"></rect><rect x="311.996" y="408.451" style="fill:#1D1D1B;" width="16.001" height="15.673"></rect><rect x="207.997" y="408.451" style="fill:#1D1D1B;" width="95.995" height="15.673"></rect><path style="fill:#1D1D1B;" d="M487.837,464.456V122.952L256,31.872L24.163,122.951v341.504H0v15.673h512v-15.673h-24.163V464.456z M39.837,133.634L256,48.712l216.163,84.921v31.16L256,79.873L39.837,164.793V133.634z M39.837,181.633L256,96.712l216.163,84.921 v282.823h-88.326v-216H128.163v216H39.837V181.633z M368.164,280.455H143.836v-16.327h224.327V280.455z M143.836,296.129h224.327 v16.327H143.836V296.129z M143.836,328.129h224.327v16.327H143.836V328.129z M143.836,360.129h224.327v16.327H143.836V360.129z M143.836,424.129h32.163v-15.673h-32.163v-16.327h224.327v16.327H336v15.673h32.163v40.327H143.836V424.129z"></path><path style="fill:#1D1D1B;" d="M391.837,168.456H120.163v63.674h271.673V168.456z M263.837,184.129h64.327v32.327h-64.327V184.129z M248.163,216.455h-64.327v-32.327h64.327V216.455z M135.837,184.129h32.327v32.327h-32.327V184.129z M376.163,216.455h-32.327 v-32.327h32.327V216.455z"></path><path style="fill:#1D1D1B;" d="M119.837,312.129H72.164v-63.674h47.673V312.129z M87.837,296.456h16.327v-32.327H87.837V296.456z"></path></g></svg>